<svg width="14" height="14" viewBox="0 0 14 14" fill="none" xmlns="http://www.w3.org/2000/svg">
<path d="M6.16667 13.6667C5.93056 13.6667 5.73251 13.5867 5.57251 13.4267C5.41251 13.2667 5.33279 13.0689 5.33334 12.8333V7.83334L0.500008 1.66668C0.291674 1.3889 0.260286 1.09723 0.405841 0.791677C0.551397 0.486121 0.805008 0.333344 1.16667 0.333344H12.8333C13.1945 0.333344 13.4481 0.486121 13.5942 0.791677C13.7403 1.09723 13.7089 1.3889 13.5 1.66668L8.66667 7.83334V12.8333C8.66667 13.0695 8.58667 13.2675 8.42667 13.4275C8.26667 13.5875 8.0689 13.6672 7.83334 13.6667H6.16667Z" fill="#3C3C3C"/>
</svg>
