<svg width="10" height="15" viewBox="0 0 10 15" fill="none" xmlns="http://www.w3.org/2000/svg">
<path d="M5 0C2.23571 0 0 2.24969 0 5.03125C0 8.80469 5 14.375 5 14.375C5 14.375 10 8.80469 10 5.03125C10 2.24969 7.76429 0 5 0ZM5 6.82812C4.5264 6.82812 4.0722 6.63881 3.73731 6.30183C3.40242 5.96485 3.21429 5.50781 3.21429 5.03125C3.21429 4.55469 3.40242 4.09765 3.73731 3.76067C4.0722 3.42369 4.5264 3.23438 5 3.23438C5.4736 3.23438 5.9278 3.42369 6.26269 3.76067C6.59758 4.09765 6.78571 4.55469 6.78571 5.03125C6.78571 5.50781 6.59758 5.96485 6.26269 6.30183C5.9278 6.63881 5.4736 6.82812 5 6.82812Z" fill="#A9A9A9"/>
</svg>
