<svg width="74" height="40" viewBox="0 0 74 40" fill="none" xmlns="http://www.w3.org/2000/svg">
<path d="M50.3334 0H17L0.333374 20V30H7.00004C7.00004 32.6522 8.05361 35.1957 9.92897 37.0711C11.8043 38.9464 14.3479 40 17 40C19.6522 40 22.1957 38.9464 24.0711 37.0711C25.9465 35.1957 27 32.6522 27 30H47C47 32.6522 48.0536 35.1957 49.929 37.0711C51.8043 38.9464 54.3479 40 57 40C59.6522 40 62.1957 38.9464 64.0711 37.0711C65.9465 35.1957 67 32.6522 67 30H73.6667V20C73.6667 16.3 70.7 13.3333 67 13.3333H60.3334L50.3334 0ZM18.6667 5H32V13.3333H12L18.6667 5ZM37 5H48.6667L55.2 13.3333H37V5ZM17 25C18.3261 25 19.5979 25.5268 20.5356 26.4645C21.4733 27.4021 22 28.6739 22 30C22 31.3261 21.4733 32.5978 20.5356 33.5355C19.5979 34.4732 18.3261 35 17 35C15.674 35 14.4022 34.4732 13.4645 33.5355C12.5268 32.5978 12 31.3261 12 30C12 28.6739 12.5268 27.4021 13.4645 26.4645C14.4022 25.5268 15.674 25 17 25ZM57 25C58.3261 25 59.5979 25.5268 60.5356 26.4645C61.4733 27.4021 62 28.6739 62 30C62 31.3261 61.4733 32.5978 60.5356 33.5355C59.5979 34.4732 58.3261 35 57 35C55.674 35 54.4022 34.4732 53.4645 33.5355C52.5268 32.5978 52 31.3261 52 30C52 28.6739 52.5268 27.4021 53.4645 26.4645C54.4022 25.5268 55.674 25 57 25Z" fill="#A71D2A"/>
</svg>
