<svg width="16" height="26" viewBox="0 0 16 26" fill="none" xmlns="http://www.w3.org/2000/svg">
<path d="M15.2875 13.925C14.9375 13.2125 13.95 12.6125 12.6375 13.625C10.85 15.05 8 15.05 8 15.05C8 15.05 5.15 15.05 3.3625 13.625C2.05 12.6125 1.0625 13.2125 0.712503 13.925C0.0875026 15.175 0.787502 15.7875 2.375 16.8C3.7375 17.675 5.6 18 6.8 18.125L5.8 19.125C4.375 20.5375 3 21.9 2.0625 22.85C1.5 23.425 1.5 24.3375 2.0625 24.875L2.2375 25.075C2.8 25.6375 3.725 25.6375 4.2875 25.075L8 21.35C9.4375 22.7625 10.8 24.125 11.75 25.075C12.3125 25.6375 13.225 25.6375 13.8 25.075L13.9625 24.875C14.5375 24.3375 14.5375 23.425 13.9625 22.85L10.2375 19.125L9.25 18.1125C10.4375 18 12.275 17.6625 13.625 16.8C15.2125 15.7875 15.9125 15.175 15.2875 13.925ZM8 3.7125C9.725 3.7125 11.125 5.1125 11.125 6.825C11.125 8.55 9.725 9.9375 8 9.9375C6.275 9.9375 4.875 8.55 4.875 6.825C4.875 5.1125 6.275 3.7125 8 3.7125ZM8 13.15C11.5 13.15 14.325 10.325 14.325 6.825C14.325 5.14751 13.6586 3.53872 12.4725 2.35255C11.2863 1.16638 9.6775 0.5 8 0.5C6.32251 0.5 4.71372 1.16638 3.52755 2.35255C2.34138 3.53872 1.675 5.14751 1.675 6.825C1.675 10.325 4.5 13.15 8 13.15Z" fill="#A9A9A9"/>
</svg>
